{"glyphs":{"0":{"ha":854,"x_min":0,"x_max":0,"o":"m 111 972 l 42 903 l 42 69 l 111 0 l 743 0 l 813 69 l 813 903 l 743 972 z m 518 222 l 275 222 l 275 376 l 336 376 l 336 757 l 518 757 z "},"1":{"ha":476,"x_min":0,"x_max":0,"o":"m 42 903 l 42 694 l 201 694 l 201 540 l 140 540 l 140 69 l 210 0 l 435 0 l 435 972 l 111 972 z "},"2":{"ha":925,"x_min":0,"x_max":0,"o":"m 275 376 l 336 376 l 336 419 l 772 419 l 882 501 l 882 863 l 772 972 l 153 972 l 83 903 l 83 757 l 674 757 l 674 594 l 111 594 l 42 525 l 42 69 l 111 0 l 772 0 l 883 114 l 883 222 l 275 222 z "},"3":{"ha":926,"x_min":0,"x_max":0,"o":"m 786 861 l 675 972 l 153 972 l 83 903 l 83 757 l 563 757 l 563 581 l 196 581 l 196 579 l 83 472 l 83 378 l 636 378 l 636 222 l 42 222 l 42 69 l 111 0 l 772 0 l 883 111 l 883 472 l 786 579 z "},"4":{"ha":913,"x_min":0,"x_max":0,"o":"m 388 972 l 104 458 l 104 272 l 576 272 l 576 0 l 760 0 l 871 111 l 871 972 z m 368 458 l 528 788 l 576 788 l 576 613 l 638 613 l 638 458 z "},"5":{"ha":883,"x_min":0,"x_max":0,"o":"m 365 581 l 365 757 l 814 757 l 814 861 l 703 972 l 140 972 l 71 903 l 71 475 l 140 406 l 547 406 l 547 376 l 608 376 l 608 222 l 111 222 l 42 153 l 42 0 l 731 0 l 842 111 l 842 469 l 731 581 z "},"6":{"ha":882,"x_min":0,"x_max":0,"o":"m 336 581 l 336 603 l 275 603 l 275 757 l 813 757 l 813 861 l 701 972 l 111 972 l 42 903 l 42 69 l 111 0 l 729 0 l 840 111 l 840 469 l 729 581 z m 336 222 l 336 406 l 593 406 l 593 222 z "},"7":{"ha":914,"x_min":0,"x_max":0,"o":"m 111 972 l 42 903 l 42 757 l 599 757 l 554 603 l 494 603 l 344 69 l 394 0 l 619 0 l 872 885 l 786 972 z "},"8":{"ha":946,"x_min":0,"x_max":0,"o":"m 844 581 l 844 903 l 774 972 l 171 972 l 101 903 l 101 581 l 42 521 l 42 69 l 111 0 l 835 0 l 904 69 l 904 521 z m 611 757 l 611 581 l 335 581 l 335 757 z m 610 376 l 610 222 l 275 222 l 275 376 z "},"9":{"ha":926,"x_min":0,"x_max":0,"o":"m 774 972 l 111 972 l 42 903 l 42 464 l 111 394 l 590 394 l 590 222 l 111 222 l 42 153 l 42 0 l 774 0 l 885 111 l 885 861 z m 590 596 l 590 567 l 333 567 l 333 757 l 651 757 l 651 596 z "}," ":{"ha":417,"x_min":0,"x_max":0,"o":""},"A":{"ha":1240,"x_min":0,"x_max":0,"o":"m 772 972 l 465 972 l 26 0 l 300 0 l 471 378 l 532 378 l 642 694 l 771 347 l 582 347 l 515 161 l 854 161 l 928 0 l 1211 0 z "},"B":{"ha":1081,"x_min":0,"x_max":0,"o":"m 801 972 l 125 972 l 56 903 l 56 69 l 125 0 l 914 0 l 1025 111 l 1025 472 l 913 579 l 913 861 z m 665 757 l 665 581 l 350 581 l 350 757 z m 289 222 l 289 376 l 778 376 l 778 222 z "},"C":{"ha":994,"x_min":0,"x_max":0,"o":"m 125 972 l 56 903 l 56 69 l 125 0 l 828 0 l 939 111 l 939 294 l 692 294 l 692 222 l 289 222 l 289 376 l 350 376 l 350 757 l 692 757 l 692 685 l 939 685 l 939 861 l 828 972 z "},"D":{"ha":1051,"x_min":0,"x_max":0,"o":"m 125 972 l 56 903 l 56 757 l 686 757 l 686 576 l 747 576 l 747 222 l 289 222 l 289 376 l 350 376 l 350 671 l 56 599 l 56 69 l 125 0 l 883 0 l 994 125 l 994 861 l 883 972 z "},"E":{"ha":1050,"x_min":0,"x_max":0,"o":"m 994 972 l 125 972 l 56 903 l 56 757 l 900 757 z m 744 376 l 824 599 l 56 599 l 56 69 b 125 0 82 42 97 28 l 894 0 l 992 222 l 289 222 l 289 376 z "},"F":{"ha":967,"x_min":0,"x_max":0,"o":"m 56 903 l 56 757 l 865 757 l 960 972 l 125 972 z m 56 69 l 125 0 l 350 0 l 350 376 l 710 376 l 789 599 l 56 599 z "},"G":{"ha":1051,"x_min":0,"x_max":0,"o":"m 604 394 l 747 394 l 747 222 l 289 222 l 289 376 l 350 376 l 350 757 l 899 757 l 994 972 l 125 972 l 56 903 l 56 69 l 125 0 l 883 0 l 994 111 l 994 468 l 883 579 l 525 579 z "},"H":{"ha":1050,"x_min":0,"x_max":0,"o":"m 700 711 l 761 711 l 761 557 l 350 557 l 350 972 l 125 972 l 56 903 l 56 69 l 125 0 l 350 0 l 350 378 l 700 378 l 700 0 l 994 0 l 994 861 l 883 972 l 700 972 z "},"I":{"ha":406,"x_min":0,"x_max":0,"o":"m 56 69 l 125 0 l 350 0 l 350 972 l 125 972 l 56 903 z "},"J":{"ha":893,"x_min":0,"x_max":0,"o":"m 543 972 l 543 376 l 604 376 l 604 222 l 303 222 l 303 376 l 56 304 l 56 69 l 125 0 l 726 0 l 838 111 l 838 861 l 726 972 z "},"K":{"ha":968,"x_min":0,"x_max":0,"o":"m 671 469 l 886 972 l 611 972 l 450 596 l 289 596 l 289 750 l 350 750 l 350 972 l 125 972 l 56 903 l 56 69 l 125 0 l 350 0 l 350 418 l 422 418 l 638 0 l 913 0 z "},"L":{"ha":929,"x_min":0,"x_max":0,"o":"m 289 222 l 289 378 l 350 378 l 350 972 l 125 972 l 56 903 l 56 69 l 125 0 l 776 0 l 874 222 z "},"M":{"ha":1271,"x_min":0,"x_max":0,"o":"m 635 694 l 322 972 l 125 972 l 56 903 l 56 69 l 125 0 l 350 0 l 350 589 l 635 332 l 921 589 l 982 589 l 982 435 l 921 435 l 921 0 l 1215 0 l 1215 972 l 949 972 z "},"N":{"ha":1081,"x_min":0,"x_max":0,"o":"m 731 592 l 792 592 l 792 438 l 731 438 l 322 972 l 125 972 l 56 903 l 56 69 l 125 0 l 350 0 l 350 528 l 758 0 l 1025 0 l 1025 972 l 731 972 z "},"O":{"ha":1049,"x_min":0,"x_max":0,"o":"m 125 972 l 56 903 l 56 69 l 125 0 l 924 0 l 993 69 l 993 903 l 924 972 z m 699 222 l 289 222 l 289 376 l 350 376 l 350 757 l 699 757 z "},"P":{"ha":981,"x_min":0,"x_max":0,"o":"m 125 972 l 56 903 l 56 69 l 125 0 l 350 0 l 350 596 l 289 596 l 289 757 l 678 757 l 678 482 l 494 482 l 415 297 l 814 297 l 925 408 l 925 861 l 814 972 z "},"Q":{"ha":1049,"x_min":0,"x_max":0,"o":"m 125 972 l 56 903 l 56 69 l 125 0 l 424 0 l 535 -215 l 810 -215 l 583 222 l 289 222 l 289 376 l 350 376 l 350 757 l 699 757 l 699 0 l 924 0 l 993 69 l 993 903 l 924 972 z "},"R":{"ha":1113,"x_min":0,"x_max":0,"o":"m 869 393 l 981 504 l 981 861 b 869 972 938 906 913 929 l 125 972 b 56 903 97 946 82 931 l 56 69 b 125 0 82 42 97 28 l 350 0 l 350 596 l 289 596 l 289 757 l 733 757 l 733 578 l 532 578 l 453 393 l 711 0 l 1056 0 l 756 393 z "},"S":{"ha":1044,"x_min":0,"x_max":0,"o":"m 1017 972 l 196 972 l 126 903 l 126 482 l 196 413 l 663 413 l 663 222 l 133 222 l 28 0 l 847 0 l 958 111 l 958 478 l 847 589 l 421 589 l 421 757 l 921 757 z "},"T":{"ha":953,"x_min":0,"x_max":0,"o":"m 7 903 l 7 757 l 329 757 l 329 69 l 399 0 l 624 0 l 624 603 l 563 603 l 563 757 l 851 757 l 946 972 l 76 972 z "},"U":{"ha":1043,"x_min":0,"x_max":0,"o":"m 693 222 l 289 222 l 289 376 l 350 376 l 350 972 l 56 972 l 56 69 l 125 0 l 876 0 l 988 111 l 988 972 l 693 972 z "},"V":{"ha":1240,"x_min":0,"x_max":0,"o":"m 774 0 l 467 0 l 28 972 l 301 972 l 472 594 l 528 594 l 643 278 l 929 972 l 1213 972 z "},"W":{"ha":1694,"x_min":0,"x_max":0,"o":"m 1096 278 l 1003 506 l 1213 972 l 929 972 l 869 828 l 810 972 l 526 972 l 738 506 l 643 278 l 528 594 l 472 594 l 301 972 l 28 972 l 467 0 l 774 0 l 869 213 l 965 0 l 1226 0 l 1665 972 l 1382 972 z "},"X":{"ha":983,"x_min":0,"x_max":0,"o":"m 944 972 l 650 972 l 536 567 l 447 567 l 333 972 l 39 972 l 194 486 l 28 0 l 325 0 l 389 224 l 328 224 l 372 378 l 550 378 l 658 0 l 956 0 l 789 486 z "},"Y":{"ha":983,"x_min":0,"x_max":0,"o":"m 956 972 l 661 972 l 492 667 l 322 972 l 28 972 l 344 458 l 344 69 l 414 0 l 639 0 l 639 304 l 578 304 l 578 458 l 639 458 z "},"Z":{"ha":1083,"x_min":0,"x_max":0,"o":"m 367 222 l 542 376 l 631 376 l 972 696 l 972 861 l 861 972 l 167 972 l 97 757 l 668 757 l 56 251 l 56 69 l 125 0 l 917 0 l 1028 222 z "},"a":{"ha":932,"x_min":0,"x_max":0,"o":"m 56 757 l 140 542 l 582 542 l 582 222 l 332 222 l 332 376 l 393 460 l 168 460 l 99 390 l 99 69 l 168 0 l 765 0 l 876 111 l 876 646 l 765 757 z "},"b":{"ha":883,"x_min":0,"x_max":0,"o":"m 828 646 l 717 757 l 350 757 l 350 1111 l 125 1111 l 56 1042 l 56 69 l 125 0 l 717 0 l 828 111 z m 350 222 l 350 542 l 533 542 l 533 376 l 594 376 l 594 222 z "},"c":{"ha":833,"x_min":0,"x_max":0,"o":"m 125 757 l 56 688 l 56 69 l 125 0 l 689 0 l 800 111 l 800 294 l 553 294 l 553 222 l 289 222 l 289 376 l 350 376 l 350 542 l 553 542 l 553 469 l 800 469 l 800 646 l 689 757 z "},"d":{"ha":883,"x_min":0,"x_max":0,"o":"m 125 0 l 717 0 l 828 111 l 828 1069 l 533 1069 l 533 757 l 125 757 l 56 688 l 56 69 z m 289 376 l 350 376 l 350 542 l 533 542 l 533 222 l 289 222 z "},"e":{"ha":932,"x_min":0,"x_max":0,"o":"m 350 215 l 350 535 l 600 535 l 600 381 l 539 297 l 764 297 l 833 367 l 833 688 l 764 757 l 167 757 l 56 646 l 56 111 l 167 0 l 876 0 l 792 215 z "},"f":{"ha":607,"x_min":0,"x_max":0,"o":"m 56 0 l 239 0 l 350 111 l 350 339 l 525 339 l 525 521 l 296 521 l 296 675 l 350 675 l 350 757 l 525 757 l 593 972 l 125 972 l 56 903 z "},"g":{"ha":904,"x_min":0,"x_max":0,"o":"m 140 757 l 71 688 l 71 125 l 140 56 l 554 56 l 554 -62 l 140 -62 l 56 -278 l 738 -278 l 849 -167 l 849 646 l 738 757 z m 365 278 l 365 542 l 554 542 l 554 418 l 615 418 l 615 278 z "},"h":{"ha":911,"x_min":0,"x_max":0,"o":"m 350 757 l 350 1111 l 56 1111 l 56 69 l 125 0 l 350 0 l 350 542 l 622 542 l 622 388 l 561 388 l 561 0 l 856 0 l 856 646 l 744 757 z "},"i":{"ha":406,"x_min":0,"x_max":0,"o":"m 239 757 l 350 868 l 350 972 l 125 972 l 56 903 l 56 757 z m 125 0 l 350 0 l 350 603 l 56 603 l 56 69 z "},"j":{"ha":601,"x_min":0,"x_max":0,"o":"m 251 903 l 251 757 l 435 757 l 546 868 l 546 972 l 321 972 z m 313 99 l 313 -56 l 67 -56 l -42 -278 l 435 -278 l 546 -167 l 546 603 l 251 603 l 251 99 z "},"k":{"ha":867,"x_min":0,"x_max":0,"o":"m 800 757 l 506 757 l 392 483 l 289 483 l 289 638 l 350 638 l 350 1040 l 125 1040 l 56 971 l 56 69 l 125 0 l 350 0 l 350 294 l 406 294 l 514 0 l 811 0 l 575 403 z "},"l":{"ha":406,"x_min":0,"x_max":0,"o":"m 239 1083 l 56 1083 l 56 0 l 239 0 l 350 111 l 350 972 z "},"m":{"ha":1375,"x_min":0,"x_max":0,"o":"m 125 757 l 56 688 l 56 0 l 350 0 l 350 381 l 289 381 l 289 535 l 540 535 l 540 0 l 835 0 l 835 535 l 1025 535 l 1025 0 l 1319 0 l 1319 646 l 1208 757 z "},"n":{"ha":890,"x_min":0,"x_max":0,"o":"m 835 0 l 835 646 l 724 757 l 125 757 l 56 688 l 56 0 l 350 0 l 350 381 l 289 381 l 289 535 l 540 535 l 540 0 z "},"o":{"ha":882,"x_min":0,"x_max":0,"o":"m 125 757 l 56 688 l 56 69 l 125 0 l 757 0 l 826 69 l 826 688 l 757 757 z m 532 222 l 289 222 l 289 376 l 350 376 l 350 542 l 532 542 z "},"p":{"ha":883,"x_min":0,"x_max":0,"o":"m 717 757 l 125 757 l 56 688 l 56 -278 l 350 -278 l 350 0 l 717 0 l 828 111 l 828 646 z m 594 381 l 533 381 l 533 215 l 350 215 l 350 535 l 594 535 z "},"q":{"ha":883,"x_min":0,"x_max":0,"o":"m 125 757 l 56 688 l 56 69 l 125 0 l 533 0 l 533 -278 l 828 -278 l 828 646 l 717 757 z m 594 215 l 350 215 l 350 535 l 533 535 l 533 369 l 594 369 z "},"r":{"ha":800,"x_min":0,"x_max":0,"o":"m 350 757 l 350 646 l 239 757 l 56 757 l 56 69 l 125 0 l 350 0 l 350 542 l 608 542 l 744 757 z "},"s":{"ha":918,"x_min":0,"x_max":0,"o":"m 876 757 l 210 757 l 140 688 l 140 385 l 210 315 l 553 315 l 553 279 l 614 279 l 614 222 l 147 222 l 42 0 l 736 0 l 847 111 l 847 339 l 736 450 l 435 450 l 435 542 l 781 542 z "},"t":{"ha":644,"x_min":0,"x_max":0,"o":"m 289 215 l 289 369 l 350 369 l 350 521 l 479 521 l 479 703 l 350 703 l 350 972 l 56 972 l 56 69 l 125 0 l 478 0 l 589 215 z "},"u":{"ha":890,"x_min":0,"x_max":0,"o":"m 540 222 l 289 222 l 289 376 l 350 376 l 350 757 l 56 757 l 56 69 l 125 0 l 724 0 l 835 111 l 835 757 l 540 757 z "},"v":{"ha":1019,"x_min":0,"x_max":0,"o":"m 417 594 l 361 594 l 289 757 l 14 757 l 356 0 l 663 0 l 1006 757 l 731 757 l 532 278 z "},"w":{"ha":1471,"x_min":0,"x_max":0,"o":"m 985 278 l 892 506 l 1004 757 l 513 757 l 626 506 l 532 278 l 417 594 l 361 594 l 288 757 l 14 757 l 356 0 l 663 0 l 758 213 l 854 0 l 1115 0 l 1457 757 l 1182 757 z "},"x":{"ha":983,"x_min":0,"x_max":0,"o":"m 944 757 l 650 757 l 536 483 l 447 483 l 333 757 l 39 757 l 194 403 l 28 0 l 325 0 l 389 168 l 328 168 l 372 294 l 550 294 l 658 0 l 956 0 l 789 403 z "},"y":{"ha":1025,"x_min":0,"x_max":0,"o":"m 717 757 l 547 451 l 364 757 l 14 757 l 331 243 l 432 243 l 147 -269 l 447 -269 l 1011 757 z "},"z":{"ha":861,"x_min":0,"x_max":0,"o":"m 322 222 l 546 376 l 667 376 l 778 488 l 778 646 l 667 757 l 111 757 l 42 549 l 501 549 l 28 251 l 28 69 l 97 0 l 722 0 l 833 222 z "},".":{"ha":285,"x_min":0,"x_max":0,"o":"m 57 0 l 161 0 l 231 69 l 231 174 l 57 174 z "},",":{"ha":833,"x_min":0,"x_max":0,"o":"m 257 -97 l 431 -97 l 486 174 l 313 174 z "},":":{"ha":272,"x_min":0,"x_max":0,"o":"m 57 364 l 161 364 l 231 433 l 231 538 l 57 538 z m 57 0 l 231 0 l 231 174 l 57 174 z "},";":{"ha":342,"x_min":0,"x_max":0,"o":"m 113 364 l 217 364 l 286 433 l 286 538 l 113 538 z m 57 -97 l 231 -97 l 286 174 l 113 174 z "},"…":{"ha":285,"x_min":0,"x_max":0,"o":"m 57 0 l 161 0 l 231 69 l 231 174 l 57 174 z "},"!":{"ha":833,"x_min":0,"x_max":0,"o":"m 301 263 l 475 263 l 489 972 l 288 972 z m 303 0 l 407 0 l 476 69 l 476 174 l 303 174 z "},"¡":{"ha":833,"x_min":0,"x_max":0,"o":"m 479 694 l 375 694 l 306 625 l 306 521 l 479 521 z m 481 432 l 307 432 l 293 -278 l 494 -278 z "},"?":{"ha":1049,"x_min":0,"x_max":0,"o":"m 125 968 l 56 899 l 56 654 l 350 654 l 350 753 l 657 753 l 657 671 l 718 671 l 718 517 l 382 517 l 382 161 l 625 161 l 625 294 l 840 294 l 951 406 l 951 857 l 840 968 z m 382 -108 l 556 -108 l 625 -39 l 625 67 l 382 67 z "},"¿":{"ha":833,"x_min":0,"x_max":0,"o":"m 625 968 l 493 968 l 382 857 l 382 793 l 625 793 z m 882 -108 l 951 -39 l 951 206 l 657 206 l 657 107 l 350 107 l 350 189 l 289 189 l 289 343 l 625 343 l 625 699 l 382 699 l 382 565 l 167 565 l 56 454 l 56 3 l 167 -108 z "},"·":{"ha":238,"x_min":0,"x_max":0,"o":"m 119 379 b 196 457 161 379 196 414 b 119 533 196 499 161 533 b 42 457 76 533 42 499 b 119 379 42 414 76 379 z "},"•":{"ha":378,"x_min":0,"x_max":0,"o":"m 189 249 b 336 396 271 249 336 314 b 189 543 336 478 271 543 b 42 396 107 543 42 478 b 189 249 42 314 107 249 z "},"*":{"ha":633,"x_min":0,"x_max":0,"o":"m 518 908 l 376 826 l 376 990 l 258 990 l 258 826 l 115 908 l 56 806 l 199 724 l 56 642 l 115 539 l 258 621 l 258 457 l 376 457 l 376 621 l 518 539 l 578 642 l 435 724 l 578 806 z "},"#":{"ha":1303,"x_min":0,"x_max":0,"o":"m 1247 749 l 1024 749 l 1088 972 l 933 972 l 869 750 l 651 750 l 715 972 l 561 972 l 497 750 l 275 750 l 231 596 l 453 596 l 390 378 l 168 378 l 124 224 l 347 224 l 282 0 l 436 0 l 501 222 l 719 222 l 656 0 l 810 0 l 874 222 l 1096 222 l 1140 376 l 917 376 l 981 594 l 1203 594 z m 544 376 l 607 596 l 826 596 l 763 376 z "},"/":{"ha":833,"x_min":0,"x_max":0,"o":"m 65 -208 l 219 -208 l 558 972 l 404 972 z "},"\\":{"ha":833,"x_min":0,"x_max":0,"o":"m 404 -208 l 558 -208 l 219 972 l 65 972 z "},"(":{"ha":482,"x_min":0,"x_max":0,"o":"m 426 -69 b 426 972 139 218 139 685 l 224 972 b 224 -69 0 663 0 240 z "},")":{"ha":482,"x_min":0,"x_max":0,"o":"m 258 -69 b 258 972 482 240 482 663 l 56 972 b 56 -69 343 685 343 218 z "},"{":{"ha":574,"x_min":0,"x_max":0,"o":"m 518 835 l 518 989 l 342 989 l 274 919 l 274 510 l 56 454 l 56 344 l 274 289 l 274 -121 l 343 -190 l 518 -190 l 518 -36 l 428 -36 l 428 344 l 229 392 l 428 432 l 428 835 z "},"}":{"ha":574,"x_min":0,"x_max":0,"o":"m 146 432 l 344 392 l 146 344 l 146 -36 l 56 -36 l 56 -190 l 231 -190 l 300 -121 l 300 289 l 518 344 l 518 454 l 300 510 l 300 919 l 232 989 l 56 989 l 56 835 l 146 835 z "},"[":{"ha":431,"x_min":0,"x_max":0,"o":"m 43 -207 l 389 -207 l 389 -53 l 197 -53 l 197 818 l 388 818 l 388 972 l 42 972 z "},"]":{"ha":431,"x_min":0,"x_max":0,"o":"m 388 -207 l 389 972 l 43 972 l 43 818 l 233 818 l 233 -53 l 42 -53 l 42 -207 z "},"-":{"ha":833,"x_min":0,"x_max":0,"o":"m 193 339 l 574 339 l 643 408 l 643 513 l 263 513 l 193 443 z "},"–":{"ha":700,"x_min":0,"x_max":0,"o":"m 56 339 l 575 339 l 644 408 l 644 513 l 125 513 l 56 443 z "},"—":{"ha":839,"x_min":0,"x_max":0,"o":"m 56 339 l 714 339 l 783 408 l 783 513 l 125 513 l 56 443 z "},"_":{"ha":833,"x_min":0,"x_max":0,"o":"m 94 -133 l 665 -133 l 735 -64 l 735 21 l 164 21 l 94 -49 z "},"‚":{"ha":833,"x_min":0,"x_max":0,"o":"m 257 -97 l 431 -97 l 486 174 l 313 174 z "},"„":{"ha":833,"x_min":0,"x_max":0,"o":"m 257 -97 l 431 -97 l 486 174 l 313 174 z "},"“":{"ha":554,"x_min":0,"x_max":0,"o":"m 42 636 l 196 636 l 279 972 l 153 972 z m 275 636 l 429 636 l 513 972 l 386 972 z "},"”":{"ha":833,"x_min":0,"x_max":0,"o":"m 279 972 l 125 972 l 42 636 l 168 636 z m 513 972 l 358 972 l 275 636 l 401 636 z "},"‘":{"ha":321,"x_min":0,"x_max":0,"o":"m 42 636 l 196 636 l 279 972 l 153 972 z "},"’":{"ha":321,"x_min":0,"x_max":0,"o":"m 279 972 l 125 972 l 42 636 l 168 636 z "},"«":{"ha":894,"x_min":0,"x_max":0,"o":"m 479 699 l 56 464 l 56 299 l 479 64 l 479 215 l 176 369 l 479 553 z m 415 463 l 415 299 l 839 64 l 839 215 l 536 369 l 839 553 l 839 699 z "},"»":{"ha":894,"x_min":0,"x_max":0,"o":"m 56 553 l 358 369 l 56 215 l 56 64 l 479 299 l 479 463 l 56 699 z m 718 369 l 415 215 l 415 64 l 839 299 l 839 464 l 415 699 l 415 553 z "},"‹":{"ha":632,"x_min":0,"x_max":0,"o":"m 56 244 l 56 410 l 576 644 l 576 499 l 374 407 l 374 376 l 204 315 l 576 161 l 576 10 z "},"›":{"ha":632,"x_min":0,"x_max":0,"o":"m 576 410 l 576 244 l 56 10 l 56 156 l 258 247 l 258 278 l 428 339 l 56 493 l 56 644 z "},"\"":{"ha":488,"x_min":0,"x_max":0,"o":"m 42 636 l 196 636 l 196 972 l 111 972 l 42 903 z m 292 636 l 376 636 l 446 706 l 446 972 l 292 972 z "},"'":{"ha":238,"x_min":0,"x_max":0,"o":"m 42 636 l 196 636 l 196 903 l 126 972 l 42 972 z "},"¢":{"ha":856,"x_min":0,"x_max":0,"o":"m 800 646 l 689 757 l 476 757 l 476 972 l 379 972 l 379 757 l 125 757 l 56 688 l 56 69 l 125 0 l 379 0 l 379 -139 l 476 -139 l 476 0 l 689 0 l 800 111 l 800 294 l 553 294 l 553 222 l 289 222 l 289 376 l 350 376 l 350 542 l 553 542 l 553 469 l 800 469 z "},"$":{"ha":1086,"x_min":0,"x_max":0,"o":"m 521 0 l 521 -150 l 675 -150 l 675 0 l 889 0 l 1000 111 l 1000 492 l 889 603 l 675 603 l 675 757 l 935 757 l 1031 972 l 675 972 l 675 1111 l 521 1111 l 521 972 l 224 972 l 154 903 l 154 496 l 224 426 l 521 426 l 521 222 l 161 222 l 56 0 z m 449 757 l 521 757 l 521 603 l 449 603 z m 675 426 l 706 426 l 706 390 l 767 390 l 767 222 l 675 222 z "},"€":{"ha":1128,"x_min":0,"x_max":0,"o":"m 1072 861 l 961 972 l 258 972 l 189 903 l 189 679 l 56 679 l 56 575 l 189 575 l 189 481 l 56 481 l 56 376 l 189 376 l 189 69 l 258 0 l 961 0 l 1072 111 l 1072 294 l 825 294 l 825 222 l 422 222 l 422 376 l 776 376 l 776 481 l 483 481 l 483 575 l 776 575 l 776 679 l 483 679 l 483 757 l 825 757 l 825 685 l 1072 685 z "},"£":{"ha":929,"x_min":0,"x_max":0,"o":"m 451 547 l 674 547 l 674 694 l 488 694 l 488 825 l 593 825 l 593 972 l 263 972 l 193 903 l 193 694 l 117 694 l 117 547 l 157 547 l 157 222 l 56 222 l 56 69 l 125 0 l 776 0 l 874 222 l 451 222 z "},"¥":{"ha":833,"x_min":0,"x_max":0,"o":"m 344 458 l 344 396 l 229 396 l 229 304 l 344 304 l 344 243 l 229 243 l 229 151 l 344 151 l 344 69 l 414 0 l 639 0 l 639 151 l 756 151 l 756 243 l 639 243 l 639 304 l 756 304 l 756 396 l 578 396 l 578 458 l 639 458 l 956 972 l 661 972 l 492 667 l 322 972 l 28 972 z "},"+":{"ha":778,"x_min":0,"x_max":0,"o":"m 313 304 l 313 33 l 467 33 l 467 304 l 736 304 l 736 458 l 467 458 l 467 728 l 313 728 l 313 458 l 42 458 l 42 304 z "},"−":{"ha":778,"x_min":0,"x_max":0,"o":"m 736 304 l 736 458 l 42 458 l 42 304 z "},"×":{"ha":683,"x_min":0,"x_max":0,"o":"m 233 381 l 42 189 l 151 81 l 343 272 l 533 81 l 642 190 l 451 381 l 642 571 l 533 681 l 343 489 l 151 681 l 42 572 z "},"÷":{"ha":833,"x_min":0,"x_max":0,"o":"m 313 575 l 467 575 l 467 729 l 313 729 z m 736 304 l 736 458 l 42 458 l 42 304 z m 313 33 l 467 33 l 467 188 l 313 188 z "},"=":{"ha":778,"x_min":0,"x_max":0,"o":"m 736 454 l 736 608 l 42 608 l 42 454 z m 736 176 l 736 331 l 42 331 l 42 176 z "},">":{"ha":535,"x_min":0,"x_max":0,"o":"m 358 369 l 56 215 l 56 64 l 479 299 l 479 464 l 56 699 l 56 553 z "},"<":{"ha":833,"x_min":0,"x_max":0,"o":"m 479 699 l 56 464 l 56 299 l 479 64 l 479 215 l 176 369 l 479 553 z "},"%":{"ha":1174,"x_min":0,"x_max":0,"o":"m 144 -35 l 299 -35 l 1028 1007 l 874 1007 z m 392 942 l 363 972 l 86 972 l 56 942 l 56 672 l 86 642 l 363 642 l 392 672 z m 157 739 l 157 806 l 185 806 l 185 878 l 264 878 l 264 739 z m 811 331 l 781 300 l 781 31 l 811 0 l 1088 0 l 1118 31 l 1118 300 l 1088 331 z m 883 97 l 883 164 l 910 164 l 910 236 l 989 236 l 989 97 z "},"@":{"ha":1258,"x_min":0,"x_max":0,"o":"m 125 938 l 56 868 l 56 -174 l 125 -243 l 656 -243 l 739 -50 l 247 -50 l 247 744 l 1010 744 l 1010 201 l 539 201 l 539 488 l 763 488 l 763 349 l 708 275 l 910 275 l 972 336 l 972 624 l 910 686 l 346 686 l 276 624 l 276 78 l 346 8 l 1133 8 l 1203 78 l 1203 868 l 1133 938 z "},"&":{"ha":1085,"x_min":0,"x_max":0,"o":"m 369 581 l 369 757 l 872 757 l 872 903 l 803 972 l 278 972 l 168 903 l 168 579 l 56 485 l 56 69 l 125 0 l 803 0 l 914 111 l 914 376 l 1029 376 l 1029 581 z m 303 222 l 303 376 l 681 376 l 681 222 z "},"§":{"ha":1142,"x_min":0,"x_max":0,"o":"m 990 793 l 1086 1008 l 251 1008 l 182 939 l 182 263 l 251 193 l 690 193 l 690 86 l 161 86 l 56 -136 l 875 -136 l 986 -25 l 986 597 l 875 708 l 476 708 l 476 793 z m 751 369 l 476 369 l 476 524 l 751 524 z "},"©":{"ha":651,"x_min":0,"x_max":0,"o":"m 325 501 b 56 772 176 501 56 622 b 325 1042 56 921 176 1042 b 596 772 474 1042 596 921 b 325 501 596 622 474 501 z m 325 951 b 146 772 226 951 146 871 b 325 592 146 672 226 592 b 506 772 425 592 506 672 b 325 951 506 871 425 951 z m 247 874 l 232 860 l 232 683 l 247 669 l 394 669 l 418 693 l 418 731 l 367 731 l 367 715 l 282 715 l 282 749 l 294 749 l 294 829 l 367 829 l 367 814 l 418 814 l 418 850 l 394 874 z "},"®":{"ha":651,"x_min":0,"x_max":0,"o":"m 326 508 b 56 779 178 508 56 629 b 326 1049 56 928 178 1049 b 596 779 475 1049 596 928 b 326 508 596 629 475 508 z m 326 958 b 146 779 226 958 146 878 b 326 599 146 679 226 599 b 506 779 425 599 506 679 b 326 958 506 878 425 958 z m 392 758 l 415 782 l 415 857 b 392 881 407 867 401 872 l 236 881 b 221 867 229 875 226 872 l 221 690 b 236 676 226 685 229 682 l 283 676 l 283 801 l 269 801 l 269 836 l 364 836 l 364 797 l 321 797 l 304 758 l 358 676 l 432 676 l 368 758 z "},"™":{"ha":2224,"x_min":0,"x_max":0,"o":"m 7 903 l 7 757 l 329 757 l 329 69 l 399 0 l 624 0 l 624 603 l 563 603 l 563 757 l 851 757 l 946 972 l 76 972 z m 1588 694 l 1275 972 l 1078 972 l 1008 903 l 1008 69 l 1078 0 l 1303 0 l 1303 589 l 1588 332 l 1874 589 l 1935 589 l 1935 435 l 1874 435 l 1874 0 l 2168 0 l 2168 972 l 1901 972 z "},"°":{"ha":378,"x_min":0,"x_max":0,"o":"m 189 911 b 42 764 107 911 42 846 b 189 617 42 682 107 617 b 336 764 271 617 336 682 b 189 911 336 846 271 911 z m 190 678 b 103 765 142 678 103 717 b 190 851 103 813 142 851 b 276 765 238 851 276 813 b 190 678 276 717 238 678 z "},"|":{"ha":833,"x_min":0,"x_max":0,"o":"m 340 -211 l 494 -211 l 494 971 l 340 971 z "},"†":{"ha":604,"x_min":0,"x_max":0,"o":"m 225 725 l 225 381 l 379 381 l 379 725 l 563 725 l 563 879 l 379 879 l 379 1040 l 225 1040 l 225 879 l 42 879 l 42 725 z "}}}
